<svg width="20" height="14" viewBox="0 0 21 15" fill="none" xmlns="http://www.w3.org/2000/svg">
<g clip-path="url(#clip0_104_3944)">
<path d="M0.501465 0.548828H23.5035V14.5488H0.501465V0.548828Z" fill="white"/>
<path d="M0.501465 0.548828H23.5035V1.49508H0.501465V0.548828ZM0.501465 2.44133H23.5035V3.38757H0.501465V2.44133ZM0.501465 4.33375H23.5035V5.27999H0.501465V4.33375ZM0.501465 6.22624H23.5035V7.17249H0.501465V6.22624ZM0.501465 8.11866H23.5035V9.06491H0.501465V8.11866ZM0.501465 10.0112H23.5035V10.9574H0.501465V10.0112ZM0.501465 11.9036H23.5035V12.8498H0.501465V11.9036Z" fill="#B22234"/>
<path d="M0.533203 13.6284H23.5353V14.5747H0.533203V13.6284ZM0.533203 15.5209H23.5353V16.4672H0.533203V15.5209ZM0.533203 17.4133H23.5353V18.3596H0.533203V17.4133ZM0.533203 19.3058H23.5353V20.2521H0.533203V19.3058ZM0.533203 21.1983H23.5353V22.1445H0.533203V21.1983ZM0.533203 23.0908H23.5353V24.037H0.533203V23.0908ZM0.533203 24.9832H23.5353V25.9294H0.533203V24.9832Z" fill="#B22234"/>
<path d="M0.501465 0.548828H9.70229V7.17241H0.501465V0.548828Z" fill="#3C3B6E"/>
<path d="M0.933594 1.08647L1.1528 1.24828L1.06908 1.51013L1.28821 1.34831L1.50742 1.51013L1.42369 1.24828L1.64282 1.08647H1.37194L1.28821 0.824707L1.20448 1.08647H0.933594ZM2.45901 1.08647L2.67815 1.24828L2.59442 1.51013L2.81363 1.34831L3.03284 1.51013L2.94911 1.24828L3.16824 1.08647H2.89736L2.81363 0.824707L2.7299 1.08647H2.45901ZM3.98443 1.08647L4.20357 1.24828L4.11984 1.51013L4.33905 1.34831L4.55818 1.51013L4.47445 1.24828L4.69366 1.08647H4.42278L4.33905 0.824707L4.25532 1.08647H3.98443ZM5.50985 1.08647L5.72899 1.24828L5.64526 1.51013L5.86447 1.34831L6.0836 1.51013L5.99987 1.24828L6.21908 1.08647H5.94812L5.86447 0.824707L5.78074 1.08647H5.50985ZM7.0352 1.08647L7.25441 1.24828L7.17068 1.51013L7.38981 1.34831L7.60902 1.51013L7.52529 1.24828L7.74443 1.08647H7.47354L7.38981 0.824707L7.30608 1.08647H7.0352ZM8.56062 1.08647L8.77975 1.24828L8.69602 1.51013L8.91523 1.34831L9.13437 1.51013L9.05064 1.24828L9.26985 1.08647H8.99896L8.91523 0.824707L8.8315 1.08647H8.56062ZM1.69627 1.75078L1.91548 1.91259L1.83175 2.17435L2.05096 2.01254L2.27009 2.17435L2.18636 1.91259L2.40557 1.75078H2.13461L2.05096 1.48894L1.96723 1.75078H1.69627ZM3.22169 1.75078L3.4409 1.91259L3.35717 2.17435L3.5763 2.01254L3.79551 2.17435L3.71178 1.91259L3.93092 1.75078H3.66003L3.5763 1.48894L3.49257 1.75078H3.22169ZM4.74711 1.75078L4.96632 1.91259L4.88259 2.17435L5.10172 2.01254L5.32093 2.17435L5.2372 1.91259L5.45634 1.75078H5.18545L5.10172 1.48894L5.01799 1.75078H4.74711ZM6.27253 1.75078L6.49166 1.91259L6.40793 2.17435L6.62714 2.01254L6.84627 2.17435L6.76255 1.91259L6.98176 1.75078H6.71087L6.62714 1.48894L6.54341 1.75078H6.27253ZM7.79787 1.75078L8.01708 1.91259L7.93335 2.17435L8.15248 2.01254L8.37169 2.17435L8.28797 1.91259L8.5071 1.75078H8.23621L8.15248 1.48894L8.06883 1.75078H7.79787ZM0.933594 2.41501L1.1528 2.57682L1.06908 2.83866L1.28821 2.67685L1.50742 2.83866L1.42369 2.57682L1.64282 2.41501H1.37194L1.28821 2.15324L1.20448 2.41501H0.933594ZM2.45901 2.41501L2.67815 2.57682L2.59442 2.83866L2.81363 2.67685L3.03284 2.83866L2.94911 2.57682L3.16824 2.41501H2.89736L2.81363 2.15324L2.7299 2.41501H2.45901ZM3.98443 2.41501L4.20357 2.57682L4.11984 2.83866L4.33905 2.67685L4.55818 2.83866L4.47445 2.57682L4.69366 2.41501H4.42278L4.33905 2.15324L4.25532 2.41501H3.98443ZM5.50985 2.41501L5.72899 2.57682L5.64526 2.83866L5.86447 2.67685L6.0836 2.83866L5.99987 2.57682L6.21908 2.41501H5.94812L5.86447 2.15324L5.78074 2.41501H5.50985ZM7.0352 2.41501L7.25441 2.57682L7.17068 2.83866L7.38981 2.67685L7.60902 2.83866L7.52529 2.57682L7.74443 2.41501H7.47354L7.38981 2.15324L7.30608 2.41501H7.0352ZM8.56062 2.41501L8.77975 2.57682L8.69602 2.83866L8.91523 2.67685L9.13437 2.83866L9.05064 2.57682L9.26985 2.41501H8.99896L8.91523 2.15324L8.8315 2.41501H8.56062ZM1.71513 3.08149L1.93426 3.24331L1.85061 3.50507L2.06974 3.34326L2.28895 3.50507L2.20522 3.24323L2.42436 3.08149H2.15347L2.06974 2.81965L1.98601 3.08149H1.71513ZM3.24055 3.08149L3.45968 3.24331L3.37595 3.50507L3.59516 3.34326L3.8143 3.50507L3.73057 3.24323L3.94978 3.08149H3.67889L3.59516 2.81965L3.51143 3.08149H3.24055ZM4.76597 3.08149L4.9851 3.24331L4.90137 3.50507L5.12058 3.34326L5.33972 3.50507L5.25599 3.24323L5.4752 3.08149H5.20423L5.12058 2.81965L5.03685 3.08149H4.76597ZM6.29131 3.08149L6.51052 3.24331L6.42679 3.50507L6.64593 3.34326L6.86514 3.50507L6.78141 3.24323L7.00054 3.08149H6.72965L6.64593 2.81965L6.5622 3.08149H6.29131ZM7.81673 3.08149L8.03586 3.24331L7.95214 3.50507L8.17135 3.34326L8.39048 3.50507L8.30675 3.24323L8.52596 3.08149H8.25507L8.17135 2.81965L8.08762 3.08149H7.81673ZM0.956749 3.74019L1.17596 3.90192L1.09223 4.16377L1.31136 4.00196L1.53057 4.16377L1.44685 3.90192L1.66598 3.74019H1.39509L1.31136 3.47835L1.22764 3.74019H0.956749ZM2.48217 3.74019L2.7013 3.90192L2.61757 4.16377L2.83678 4.00196L3.05592 4.16377L2.97227 3.90192L3.1914 3.74019H2.92051L2.83678 3.47835L2.75306 3.74019H2.48217ZM4.00759 3.74019L4.22672 3.90192L4.14299 4.16377L4.3622 4.00196L4.58134 4.16377L4.49761 3.90192L4.71682 3.74019H4.44593L4.3622 3.47835L4.27848 3.74019H4.00759ZM5.53293 3.74019L5.75214 3.90192L5.66841 4.16377L5.88755 4.00196L6.10676 4.16377L6.02303 3.90192L6.24224 3.74019H5.97128L5.88755 3.47835L5.8039 3.74019H5.53293ZM7.05835 3.74019L7.27749 3.90192L7.19383 4.16377L7.41297 4.00196L7.63218 4.16377L7.54845 3.90192L7.76758 3.74019H7.4967L7.41297 3.47835L7.32924 3.74019H7.05835ZM8.58377 3.74019L8.80291 3.90192L8.71918 4.16377L8.93839 4.00196L9.15752 4.16377L9.07379 3.90192L9.293 3.74019H9.02211L8.93839 3.47835L8.85466 3.74019H8.58377ZM0.971087 5.04761L1.19022 5.20942L1.10649 5.47127L1.3257 5.30946L1.54484 5.47127L1.46111 5.20942L1.68032 5.04761H1.40943L1.3257 4.78585L1.24197 5.04761H0.971087ZM2.49643 5.04761L2.71564 5.20942L2.63191 5.47127L2.85105 5.30946L3.07026 5.47127L2.98653 5.20942L3.20566 5.04761H2.93477L2.85105 4.78585L2.76732 5.04761H2.49643ZM4.02185 5.04761L4.24098 5.20942L4.15733 5.47127L4.37647 5.30946L4.59568 5.47127L4.51195 5.20942L4.73108 5.04761H4.46019L4.37647 4.78585L4.29274 5.04761H4.02185ZM5.54727 5.04761L5.7664 5.20942L5.68268 5.47127L5.90189 5.30946L6.12102 5.47127L6.03737 5.20942L6.2565 5.04761H5.98561L5.90189 4.78585L5.81816 5.04761H5.54727ZM7.07261 5.04761L7.29182 5.20942L7.2081 5.47127L7.42723 5.30946L7.64644 5.47127L7.56271 5.20942L7.78192 5.04761H7.51096L7.42723 4.78585L7.34358 5.04761H7.07261ZM8.59803 5.04761L8.81717 5.20942L8.73352 5.47127L8.95265 5.30946L9.17186 5.47127L9.08813 5.20942L9.30726 5.04761H9.03638L8.95265 4.78585L8.86892 5.04761H8.59803ZM0.952455 6.37046L1.17159 6.53227L1.08786 6.79411L1.30707 6.6323L1.5262 6.79411L1.44248 6.53227L1.66169 6.37046H1.39072L1.30707 6.1087L1.22334 6.37046H0.952455ZM2.4778 6.37046L2.69701 6.53227L2.61328 6.79411L2.83241 6.6323L3.05162 6.79411L2.9679 6.53227L3.18703 6.37046H2.91614L2.83241 6.1087L2.74869 6.37046H2.4778ZM4.00322 6.37046L4.22235 6.53227L4.1387 6.79411L4.35783 6.6323L4.57704 6.79411L4.49332 6.53227L4.71245 6.37046H4.44156L4.35783 6.1087L4.27411 6.37046H4.00322ZM5.52864 6.37046L5.74777 6.53227L5.66404 6.79411L5.88325 6.6323L6.10239 6.79411L6.01874 6.53227L6.23787 6.37046H5.96698L5.88325 6.1087L5.79953 6.37046H5.52864ZM7.05398 6.37046L7.27319 6.53227L7.18946 6.79411L7.4086 6.6323L7.62781 6.79411L7.54408 6.53227L7.76329 6.37046H7.49232L7.4086 6.1087L7.32495 6.37046H7.05398ZM8.5794 6.37046L8.79853 6.53227L8.71488 6.79411L8.93402 6.6323L9.15323 6.79411L9.0695 6.53227L9.28863 6.37046H9.01775L8.93402 6.1087L8.85029 6.37046H8.5794ZM1.71965 4.38736L1.93878 4.54917L1.85513 4.81093L2.07427 4.64912L2.29348 4.81093L2.20975 4.54917L2.42888 4.38736H2.15799L2.07427 4.12552L1.99054 4.38736H1.71965ZM3.24507 4.38736L3.4642 4.54917L3.38048 4.81093L3.59969 4.64912L3.81882 4.81093L3.73517 4.54917L3.9543 4.38736H3.68341L3.59969 4.12552L3.51596 4.38736H3.24507ZM4.77049 4.38736L4.98962 4.54917L4.9059 4.81093L5.12511 4.64912L5.34424 4.81093L5.26051 4.54917L5.47972 4.38736H5.20883L5.12511 4.12552L5.04138 4.38736H4.77049ZM6.29583 4.38736L6.51504 4.54917L6.43132 4.81093L6.65045 4.64912L6.86966 4.81093L6.78593 4.54917L7.00506 4.38736H6.73418L6.65045 4.12552L6.56672 4.38736H6.29583ZM7.82125 4.38736L8.04039 4.54917L7.95666 4.81093L8.17587 4.64912L8.395 4.81093L8.31135 4.54917L8.53048 4.38736H8.2596L8.17587 4.12552L8.09214 4.38736H7.82125ZM1.71513 5.7081L1.93434 5.86991L1.85061 6.13176L2.06974 5.96994L2.28895 6.13176L2.20522 5.86991L2.42436 5.7081H2.15347L2.06974 5.44634L1.98601 5.7081H1.71513ZM3.24055 5.7081L3.45968 5.86991L3.37595 6.13176L3.59516 5.96994L3.81437 6.13176L3.73064 5.86991L3.94978 5.7081H3.67889L3.59516 5.44634L3.51143 5.7081H3.24055ZM4.76597 5.7081L4.9851 5.86991L4.90137 6.13176L5.12058 5.96994L5.33972 6.13176L5.25599 5.86991L5.4752 5.7081H5.20431L5.12058 5.44634L5.03685 5.7081H4.76597ZM6.29131 5.7081L6.51052 5.86991L6.42679 6.13176L6.64593 5.96994L6.86514 6.13176L6.78141 5.86991L7.00054 5.7081H6.72965L6.64593 5.44634L6.5622 5.7081H6.29131ZM7.81673 5.7081L8.03586 5.86991L7.95214 6.13176L8.17135 5.96994L8.39048 6.13176L8.30683 5.86991L8.52596 5.7081H8.25507L8.17135 5.44634L8.08762 5.7081H7.81673Z" fill="white"/>
</g>
<defs>
<clipPath id="clip0_104_3944">
<rect x="0.5" y="0.5" width="20" height="14" rx="2" fill="white"/>
</clipPath>
</defs>
</svg>
