<svg width="20" height="20" viewBox="0 0 21 21" fill="none" xmlns="http://www.w3.org/2000/svg">
<rect x="0.675537" y="0.0371094" width="20" height="20" rx="10" fill="#F30000"/>
<path d="M10.0603 9.05664V10.4512C10.0603 11.1191 9.9939 11.6895 9.86108 12.1621C9.73218 12.6309 9.54468 13.0117 9.29858 13.3047C9.05249 13.5977 8.75757 13.8125 8.41382 13.9492C8.07397 14.0859 7.69312 14.1543 7.27124 14.1543C6.9353 14.1543 6.6228 14.1113 6.33374 14.0254C6.04858 13.9395 5.79077 13.8047 5.5603 13.6211C5.32983 13.4375 5.13257 13.2012 4.96851 12.9121C4.80835 12.6191 4.68335 12.2695 4.59351 11.8633C4.50757 11.457 4.4646 10.9863 4.4646 10.4512V9.05664C4.4646 8.38477 4.53101 7.81836 4.66382 7.35742C4.79663 6.89258 4.98608 6.51562 5.23218 6.22656C5.47827 5.93359 5.77124 5.7207 6.11108 5.58789C6.45483 5.45508 6.83765 5.38867 7.25952 5.38867C7.59937 5.38867 7.91187 5.43164 8.19702 5.51758C8.48608 5.59961 8.7439 5.73047 8.97046 5.91016C9.20093 6.08984 9.39624 6.32422 9.5564 6.61328C9.72046 6.89844 9.84546 7.24414 9.9314 7.65039C10.0173 8.05273 10.0603 8.52148 10.0603 9.05664ZM8.64819 10.6504V8.8457C8.64819 8.50586 8.62866 8.20703 8.5896 7.94922C8.55054 7.6875 8.49194 7.4668 8.41382 7.28711C8.3396 7.10352 8.24585 6.95508 8.13257 6.8418C8.01929 6.72461 7.89038 6.64062 7.74585 6.58984C7.60132 6.53516 7.43921 6.50781 7.25952 6.50781C7.04077 6.50781 6.84546 6.55078 6.67358 6.63672C6.50171 6.71875 6.35718 6.85156 6.23999 7.03516C6.1228 7.21875 6.03296 7.46094 5.97046 7.76172C5.91187 8.05859 5.88257 8.41992 5.88257 8.8457V10.6504C5.88257 10.9941 5.9021 11.2969 5.94116 11.5586C5.98022 11.8203 6.03882 12.0449 6.11694 12.2324C6.19507 12.416 6.28882 12.5684 6.39819 12.6895C6.51147 12.8066 6.64038 12.8926 6.78491 12.9473C6.93335 13.002 7.09546 13.0293 7.27124 13.0293C7.4939 13.0293 7.69116 12.9863 7.86304 12.9004C8.03491 12.8145 8.17944 12.6777 8.29663 12.4902C8.41382 12.2988 8.50171 12.0508 8.5603 11.7461C8.6189 11.4414 8.64819 11.0762 8.64819 10.6504ZM16.9861 5.50586V6.2793L13.5759 14.0371H12.0876L15.4919 6.63086H11.074V5.50586H16.9861Z" fill="white"/>
</svg>
